<?xml version="1.0" standalone="no"?>
<!DOCTYPE svg PUBLIC "-//W3C//DTD SVG 20010904//EN"
 "http://www.w3.org/TR/2001/REC-SVG-20010904/DTD/svg10.dtd">
<svg version="1.0" xmlns="http://www.w3.org/2000/svg"
 width="1024.000000pt" height="1024.000000pt" viewBox="0 0 1024.000000 1024.000000"
 preserveAspectRatio="xMidYMid meet">

<g transform="translate(0.000000,1024.000000) scale(0.100000,-0.100000)"
fill="#000000" stroke="none">
<path d="M8350 7113 c-162 -54 -501 -139 -580 -145 -33 -3 -35 -5 -38 -44 l-3
-41 51 -6 c84 -10 155 -48 189 -102 58 -91 56 -50 56 -1305 0 -635 -4 -1176
-8 -1201 -16 -95 -91 -168 -180 -177 l-48 -5 3 -46 3 -46 463 -3 462 -2 0 49
0 48 -41 7 c-73 12 -146 73 -181 151 -10 24 -14 308 -18 1470 l-5 1440 -125
-42z"/>
<path d="M2312 7025 c-269 -49 -446 -162 -564 -362 -90 -152 -123 -299 -115
-503 5 -148 23 -223 82 -345 116 -238 263 -346 785 -570 256 -111 382 -187
483 -294 111 -118 153 -234 145 -396 -4 -80 -10 -102 -43 -171 -147 -306 -560
-403 -928 -218 -126 64 -260 185 -345 314 -53 80 -134 245 -157 323 -17 54
-19 57 -51 57 -18 0 -35 -3 -37 -7 -3 -5 1 -48 8 -98 7 -49 23 -169 35 -265
12 -96 30 -229 39 -294 l16 -120 60 -23 c101 -40 313 -91 445 -107 298 -37
658 0 871 89 247 105 420 310 495 591 29 107 27 371 -4 477 -52 183 -170 352
-322 464 -96 70 -228 139 -440 228 -283 120 -354 152 -424 193 -89 52 -184
153 -231 247 l-40 78 0 136 c0 134 1 138 32 202 57 116 164 202 303 244 87 26
242 31 332 11 87 -19 195 -69 256 -118 105 -84 197 -239 262 -442 l35 -106 38
0 39 0 -7 133 c-3 72 -11 182 -16 242 -5 61 -9 151 -9 201 l0 91 -92 31 c-224
76 -399 102 -663 101 -118 0 -230 -6 -273 -14z"/>
<path d="M4710 5960 c-228 -32 -474 -154 -630 -311 -286 -288 -385 -722 -250
-1091 120 -328 413 -556 788 -613 126 -19 202 -19 315 0 257 42 459 139 619
298 429 427 415 1140 -29 1498 -120 96 -266 167 -423 204 -80 19 -302 27 -390
15z m251 -136 c116 -34 191 -93 257 -198 77 -123 116 -264 133 -481 31 -399
-49 -771 -201 -938 -88 -96 -186 -137 -330 -137 -209 0 -355 113 -454 351 -61
148 -79 262 -80 504 0 228 9 311 53 465 70 242 191 389 361 436 65 18 197 17
261 -2z"/>
<path d="M6721 5960 c-130 -18 -280 -77 -390 -152 -165 -114 -248 -257 -253
-438 l-3 -85 183 -3 182 -2 0 33 c0 64 31 212 55 264 65 142 235 240 351 203
146 -47 190 -164 178 -478 l-7 -173 -26 -13 c-14 -7 -62 -25 -106 -41 -317
-110 -429 -152 -516 -195 -290 -143 -408 -345 -358 -616 30 -165 156 -289 329
-325 71 -15 187 -6 270 20 99 31 251 128 367 234 43 40 63 41 63 5 0 -36 59
-145 97 -178 102 -90 248 -102 390 -33 59 29 163 119 234 204 l41 49 -28 23
-27 24 -50 -34 c-38 -26 -59 -33 -97 -33 -59 0 -88 21 -100 75 -5 22 -10 301
-10 620 -1 631 -5 685 -55 785 -56 111 -183 200 -340 240 -92 24 -278 33 -374
20z m297 -1255 l2 -268 -24 -41 c-34 -58 -107 -123 -172 -153 -48 -22 -66 -25
-139 -22 -75 4 -87 7 -122 35 -61 49 -86 104 -91 199 -9 177 85 323 272 422
76 39 245 104 261 99 6 -2 11 -103 13 -271z"/>
</g>
</svg>
